<svg width="18" height="15" viewBox="0 0 18 15" fill="none" xmlns="http://www.w3.org/2000/svg">
<path d="M1.29004 10.5703C1.29004 10.5703 4.09657 13.0542 8.31543 13.0801C12.4738 13.1052 15.3188 10.7798 15.4814 10.6465L15.4844 10.6416H15.4902L16.749 11.9775L18 13.3516C17.9879 13.3616 16.5446 14.5617 16.542 14.4678C16.5398 14.4019 15.7263 13.5885 15.1748 13.043C13.7129 13.8793 11.313 14.8994 8.30273 14.8799L8.30957 14.873C3.31642 14.8408 0.129022 11.9898 0 11.8672L1.29004 10.5703ZM4.14258 0C4.99149 0 5.72411 0.182538 6.33984 0.546875C6.95896 0.907502 7.43636 1.41353 7.77148 2.06543C8.10662 2.71384 8.27436 3.47192 8.27441 4.33887C8.27441 5.1987 8.10668 5.95526 7.77148 6.60742C7.4363 7.2559 6.95918 7.76263 6.33984 8.12695C5.72411 8.48765 4.99149 8.66797 4.14258 8.66797C3.29384 8.66796 2.55972 8.48752 1.94043 8.12695C1.32471 7.76262 0.848862 7.25593 0.513672 6.60742C0.178481 5.95526 0.0107422 5.1987 0.0107422 4.33887C0.0107978 3.47192 0.178537 2.71384 0.513672 2.06543C0.848856 1.41339 1.32478 0.907524 1.94043 0.546875C2.55979 0.182551 3.2937 9.41893e-06 4.14258 0ZM13.5811 0C14.4298 4.01864e-05 15.1617 0.182627 15.7773 0.546875C16.3967 0.907545 16.8748 1.41333 17.21 2.06543C17.5451 2.71385 17.7119 3.47191 17.7119 4.33887C17.7119 5.19869 17.5451 5.95526 17.21 6.60742C16.8748 7.25594 16.3967 7.76262 15.7773 8.12695C15.1618 8.48743 14.4296 8.66793 13.5811 8.66797C12.7321 8.66797 11.9973 8.48765 11.3779 8.12695C10.7623 7.76266 10.2873 7.2558 9.95215 6.60742C9.61696 5.95526 9.44922 5.1987 9.44922 4.33887C9.44927 3.47191 9.61701 2.71385 9.95215 2.06543C10.2872 1.41361 10.7625 0.907485 11.3779 0.546875C11.9973 0.182538 12.7321 0 13.5811 0ZM4.15332 1.77637C3.76365 1.77642 3.43581 1.88725 3.16992 2.10938C2.90763 2.33159 2.70902 2.63412 2.57422 3.0166C2.44306 3.39916 2.37695 3.83503 2.37695 4.32324C2.37698 4.81127 2.44311 5.24647 2.57422 5.62891C2.70902 6.01145 2.90761 6.31389 3.16992 6.53613C3.43583 6.75469 3.76359 6.86421 4.15332 6.86426C4.53952 6.86426 4.86241 6.75474 5.12109 6.53613C5.37968 6.3139 5.57492 6.01137 5.70605 5.62891C5.84077 5.2465 5.90817 4.81121 5.9082 4.32324C5.9082 3.83503 5.84086 3.39916 5.70605 3.0166C5.5749 2.63407 5.37976 2.33162 5.12109 2.10938C4.86241 1.88713 4.53952 1.77637 4.15332 1.77637ZM13.5918 1.77637C13.2021 1.77637 12.8743 1.8873 12.6084 2.10938C12.3461 2.33158 12.1475 2.63415 12.0127 3.0166C11.8815 3.39916 11.8154 3.83503 11.8154 4.32324C11.8155 4.8113 11.8816 5.24645 12.0127 5.62891C12.1475 6.01145 12.3461 6.31389 12.6084 6.53613C12.8743 6.75463 13.2021 6.86426 13.5918 6.86426C13.9779 6.86424 14.3 6.7546 14.5586 6.53613C14.8173 6.31389 15.0124 6.01146 15.1436 5.62891C15.2783 5.24646 15.3457 4.81129 15.3457 4.32324C15.3457 3.83503 15.2784 3.39916 15.1436 3.0166C15.0124 2.63413 14.8172 2.33159 14.5586 2.10938C14.3 1.88733 13.9778 1.77639 13.5918 1.77637Z" fill="white"/>
</svg>
