<svg width="9" height="9" viewBox="0 0 9 9" fill="none" xmlns="http://www.w3.org/2000/svg">
<path d="M4.29009 9.00012C3.40862 9.00012 2.64632 8.81285 2.00318 8.43832C1.36383 8.06001 0.870126 7.53415 0.522075 6.86075C0.174026 6.18356 0 5.39856 0 4.50573C0 3.60534 0.174026 2.81845 0.522075 2.14505C0.870126 1.46786 1.36383 0.942005 2.00318 0.567472C2.64632 0.189157 3.40862 0 4.29009 0C5.17157 0 5.93198 0.189157 6.57134 0.567472C7.21447 0.942005 7.71006 1.46786 8.05811 2.14505C8.40616 2.81845 8.58019 3.60534 8.58019 4.50573C8.58019 5.39856 8.40616 6.18356 8.05811 6.86075C7.71006 7.53415 7.21447 8.06001 6.57134 8.43832C5.93198 8.81285 5.17157 9.00012 4.29009 9.00012ZM4.30144 7.12746C4.70246 7.12746 5.03727 7.01396 5.30587 6.78698C5.57447 6.5562 5.77687 6.2422 5.91307 5.84497C6.05304 5.44774 6.12303 4.99565 6.12303 4.48871C6.12303 3.98177 6.05304 3.52968 5.91307 3.13245C5.77687 2.73522 5.57447 2.42122 5.30587 2.19045C5.03727 1.95967 4.70246 1.84429 4.30144 1.84429C3.89665 1.84429 3.55616 1.95967 3.27999 2.19045C3.00761 2.42122 2.80142 2.73522 2.66145 3.13245C2.52525 3.52968 2.45716 3.98177 2.45716 4.48871C2.45716 4.99565 2.52525 5.44774 2.66145 5.84497C2.80142 6.2422 3.00761 6.5562 3.27999 6.78698C3.55616 7.01396 3.89665 7.12746 4.30144 7.12746Z" fill="#151515"/>
</svg>
