<svg width="58" height="24" viewBox="0 0 58 24" fill="none" xmlns="http://www.w3.org/2000/svg">
<path d="M7.625 9.42045C7.56439 8.88258 7.31439 8.46591 6.875 8.17045C6.43561 7.87121 5.88258 7.72159 5.21591 7.72159C4.73864 7.72159 4.32576 7.79735 3.97727 7.94886C3.62879 8.09659 3.35795 8.30114 3.16477 8.5625C2.97538 8.82008 2.88068 9.11364 2.88068 9.44318C2.88068 9.7197 2.94508 9.95833 3.07386 10.1591C3.20644 10.3598 3.37879 10.5284 3.59091 10.6648C3.80682 10.7973 4.03788 10.9091 4.28409 11C4.5303 11.0871 4.76705 11.1591 4.99432 11.2159L6.13068 11.5114C6.50189 11.6023 6.88258 11.7254 7.27273 11.8807C7.66288 12.036 8.02462 12.2405 8.35795 12.4943C8.69129 12.7481 8.96023 13.0625 9.16477 13.4375C9.37311 13.8125 9.47727 14.2614 9.47727 14.7841C9.47727 15.4432 9.30682 16.0284 8.96591 16.5398C8.62879 17.0511 8.13826 17.4545 7.49432 17.75C6.85417 18.0455 6.07955 18.1932 5.17045 18.1932C4.29924 18.1932 3.54545 18.0549 2.90909 17.7784C2.27273 17.5019 1.77462 17.1098 1.41477 16.6023C1.05492 16.0909 0.856061 15.4848 0.818182 14.7841H2.57955C2.61364 15.2045 2.75 15.5549 2.98864 15.8352C3.23106 16.1117 3.53977 16.3182 3.91477 16.4545C4.29356 16.5871 4.70833 16.6534 5.15909 16.6534C5.6553 16.6534 6.09659 16.5758 6.48295 16.4205C6.87311 16.2614 7.17992 16.0417 7.40341 15.7614C7.62689 15.4773 7.73864 15.1458 7.73864 14.767C7.73864 14.4223 7.64015 14.1402 7.44318 13.9205C7.25 13.7008 6.98674 13.5189 6.65341 13.375C6.32386 13.2311 5.95076 13.1042 5.53409 12.9943L4.15909 12.6193C3.22727 12.3655 2.48864 11.9924 1.94318 11.5C1.40152 11.0076 1.13068 10.3561 1.13068 9.54545C1.13068 8.875 1.3125 8.28977 1.67614 7.78977C2.03977 7.28977 2.5322 6.90151 3.15341 6.625C3.77462 6.3447 4.47538 6.20455 5.25568 6.20455C6.04356 6.20455 6.73864 6.3428 7.34091 6.61932C7.94697 6.89583 8.42424 7.27652 8.77273 7.76136C9.12121 8.24242 9.30303 8.79545 9.31818 9.42045H7.625ZM16.9673 14.3807V9.27273H18.6719V18H17.0014V16.4886H16.9105C16.7098 16.9545 16.3878 17.3428 15.9446 17.6534C15.5052 17.9602 14.9579 18.1136 14.3026 18.1136C13.742 18.1136 13.2457 17.9905 12.8139 17.7443C12.3859 17.4943 12.0488 17.125 11.8026 16.6364C11.5601 16.1477 11.4389 15.5436 11.4389 14.8239V9.27273H13.1378V14.6193C13.1378 15.214 13.3026 15.6875 13.6321 16.0398C13.9616 16.392 14.3897 16.5682 14.9162 16.5682C15.2344 16.5682 15.5507 16.4886 15.8651 16.3295C16.1832 16.1705 16.4465 15.9299 16.6548 15.608C16.867 15.286 16.9711 14.8769 16.9673 14.3807ZM24.6307 18.1761C23.786 18.1761 23.0587 17.9848 22.4489 17.6023C21.8428 17.2159 21.3769 16.6837 21.0511 16.0057C20.7254 15.3277 20.5625 14.5511 20.5625 13.6761C20.5625 12.7898 20.7292 12.0076 21.0625 11.3295C21.3958 10.6477 21.8655 10.1155 22.4716 9.73295C23.0777 9.35038 23.7917 9.15909 24.6136 9.15909C25.2765 9.15909 25.8674 9.2822 26.3864 9.52841C26.9053 9.77083 27.3239 10.1117 27.642 10.5511C27.964 10.9905 28.1553 11.5038 28.2159 12.0909H26.5625C26.4716 11.6818 26.2633 11.3295 25.9375 11.0341C25.6155 10.7386 25.1837 10.5909 24.642 10.5909C24.1686 10.5909 23.7538 10.7159 23.3977 10.9659C23.0455 11.2121 22.7708 11.5644 22.5739 12.0227C22.3769 12.4773 22.2784 13.0152 22.2784 13.6364C22.2784 14.2727 22.375 14.822 22.5682 15.2841C22.7614 15.7462 23.0341 16.1042 23.3864 16.358C23.7424 16.6117 24.161 16.7386 24.642 16.7386C24.964 16.7386 25.2557 16.6799 25.517 16.5625C25.7822 16.4413 26.0038 16.2689 26.1818 16.0455C26.3636 15.822 26.4905 15.553 26.5625 15.2386H28.2159C28.1553 15.803 27.9716 16.3068 27.6648 16.75C27.358 17.1932 26.947 17.5417 26.4318 17.7955C25.9205 18.0492 25.3201 18.1761 24.6307 18.1761ZM31.7315 12.8182V18H30.0327V6.36364H31.7088V10.6932H31.8168C32.0213 10.2235 32.3338 9.85038 32.7543 9.57386C33.1747 9.29735 33.724 9.15909 34.402 9.15909C35.0005 9.15909 35.5232 9.2822 35.9702 9.52841C36.4209 9.77462 36.7694 10.142 37.0156 10.6307C37.2656 11.1155 37.3906 11.7216 37.3906 12.4489V18H35.6918V12.6534C35.6918 12.0133 35.527 11.517 35.1974 11.1648C34.8679 10.8087 34.4096 10.6307 33.8224 10.6307C33.4209 10.6307 33.0611 10.7159 32.7429 10.8864C32.4285 11.0568 32.1804 11.3068 31.9986 11.6364C31.8205 11.9621 31.7315 12.3561 31.7315 12.8182ZM43.419 18.1761C42.5592 18.1761 41.8187 17.9924 41.1974 17.625C40.58 17.2538 40.1027 16.733 39.7656 16.0625C39.4323 15.3883 39.2656 14.5985 39.2656 13.6932C39.2656 12.7992 39.4323 12.0114 39.7656 11.3295C40.1027 10.6477 40.5724 10.1155 41.1747 9.73295C41.7808 9.35038 42.4891 9.15909 43.2997 9.15909C43.7921 9.15909 44.2694 9.24053 44.7315 9.40341C45.1937 9.56629 45.6084 9.82197 45.9759 10.1705C46.3433 10.5189 46.633 10.9716 46.8452 11.5284C47.0573 12.0814 47.1634 12.7538 47.1634 13.5455V14.1477H40.2259V12.875H45.4986C45.4986 12.428 45.4077 12.0322 45.2259 11.6875C45.044 11.339 44.7884 11.0644 44.4588 10.8636C44.133 10.6629 43.7505 10.5625 43.3111 10.5625C42.8338 10.5625 42.4171 10.6799 42.0611 10.9148C41.7088 11.1458 41.4361 11.4489 41.2429 11.8239C41.0535 12.1951 40.9588 12.5985 40.9588 13.0341V14.0284C40.9588 14.6117 41.0611 15.108 41.2656 15.517C41.474 15.9261 41.7637 16.2386 42.1349 16.4545C42.5062 16.6667 42.9399 16.7727 43.4361 16.7727C43.758 16.7727 44.0516 16.7273 44.3168 16.6364C44.5819 16.5417 44.8111 16.4015 45.0043 16.2159C45.1974 16.0303 45.3452 15.8011 45.4474 15.5284L47.0554 15.8182C46.9266 16.2917 46.6955 16.7064 46.3622 17.0625C46.0327 17.4148 45.6179 17.6894 45.1179 17.8864C44.6217 18.0795 44.0554 18.1761 43.419 18.1761ZM50.7472 12.8182V18H49.0483V9.27273H50.679V10.6932H50.7869C50.9877 10.2311 51.3021 9.85985 51.7301 9.57955C52.1619 9.29924 52.7055 9.15909 53.3608 9.15909C53.9555 9.15909 54.4763 9.28409 54.9233 9.53409C55.3703 9.7803 55.7169 10.1477 55.9631 10.6364C56.2093 11.125 56.3324 11.7292 56.3324 12.4489V18H54.6335V12.6534C54.6335 12.0208 54.4688 11.5265 54.1392 11.1705C53.8097 10.8106 53.357 10.6307 52.7812 10.6307C52.3873 10.6307 52.0369 10.7159 51.7301 10.8864C51.4271 11.0568 51.1866 11.3068 51.0085 11.6364C50.8343 11.9621 50.7472 12.3561 50.7472 12.8182Z" fill="#626262"/>
</svg>
