<svg width="21" height="21" viewBox="0 0 21 21" fill="none" xmlns="http://www.w3.org/2000/svg">
<path d="M10 8V5H7V3H10V0H12V3H15V5H12V8H10ZM6 21C5.45 21 4.97917 20.8042 4.5875 20.4125C4.19583 20.0208 4 19.55 4 19C4 18.45 4.19583 17.9792 4.5875 17.5875C4.97917 17.1958 5.45 17 6 17C6.55 17 7.02083 17.1958 7.4125 17.5875C7.80417 17.9792 8 18.45 8 19C8 19.55 7.80417 20.0208 7.4125 20.4125C7.02083 20.8042 6.55 21 6 21ZM16 21C15.45 21 14.9792 20.8042 14.5875 20.4125C14.1958 20.0208 14 19.55 14 19C14 18.45 14.1958 17.9792 14.5875 17.5875C14.9792 17.1958 15.45 17 16 17C16.55 17 17.0208 17.1958 17.4125 17.5875C17.8042 17.9792 18 18.45 18 19C18 19.55 17.8042 20.0208 17.4125 20.4125C17.0208 20.8042 16.55 21 16 21ZM0 3V1H3.275L7.525 10H14.525L18.425 3H20.7L16.3 10.95C16.1167 11.2833 15.8708 11.5417 15.5625 11.725C15.2542 11.9083 14.9167 12 14.55 12H7.1L6 14H18V16H6C5.25 16 4.67917 15.675 4.2875 15.025C3.89583 14.375 3.88333 13.7167 4.25 13.05L5.6 10.6L2 3H0Z" fill="white"/>
</svg>
