<svg width="23" height="16" viewBox="0 0 23 16" fill="none" xmlns="http://www.w3.org/2000/svg">
<path d="M0 9.325L0.5 7.325H6L5.5 9.325H0ZM6.5 16C5.66667 16 4.95833 15.7083 4.375 15.125C3.79167 14.5417 3.5 13.8333 3.5 13H1L1.5 10.825H6.675L7.575 7.175H9.675L10.925 2.175H4L4.15 1.575C4.25 1.10833 4.47917 0.729167 4.8375 0.4375C5.19583 0.145833 5.61667 0 6.1 0H17.5L16.575 4H19.5L22.5 8L21.5 13H19.5C19.5 13.8333 19.2083 14.5417 18.625 15.125C18.0417 15.7083 17.3333 16 16.5 16C15.6667 16 14.9583 15.7083 14.375 15.125C13.7917 14.5417 13.5 13.8333 13.5 13H9.5C9.5 13.8333 9.20833 14.5417 8.625 15.125C8.04167 15.7083 7.33333 16 6.5 16ZM2 5.675L2.5 3.675H9L8.5 5.675H2ZM6.5 14C6.78333 14 7.02083 13.9042 7.2125 13.7125C7.40417 13.5208 7.5 13.2833 7.5 13C7.5 12.7167 7.40417 12.4792 7.2125 12.2875C7.02083 12.0958 6.78333 12 6.5 12C6.21667 12 5.97917 12.0958 5.7875 12.2875C5.59583 12.4792 5.5 12.7167 5.5 13C5.5 13.2833 5.59583 13.5208 5.7875 13.7125C5.97917 13.9042 6.21667 14 6.5 14ZM16.5 14C16.7833 14 17.0208 13.9042 17.2125 13.7125C17.4042 13.5208 17.5 13.2833 17.5 13C17.5 12.7167 17.4042 12.4792 17.2125 12.2875C17.0208 12.0958 16.7833 12 16.5 12C16.2167 12 15.9792 12.0958 15.7875 12.2875C15.5958 12.4792 15.5 12.7167 15.5 13C15.5 13.2833 15.5958 13.5208 15.7875 13.7125C15.9792 13.9042 16.2167 14 16.5 14ZM15.425 9H20.25L20.35 8.475L18.5 6H16.125L15.425 9Z" fill="#34A853"/>
</svg>
