<svg width="73" height="24" viewBox="0 0 73 24" fill="none" xmlns="http://www.w3.org/2000/svg">
<path d="M12.0773 6.97L12.3056 6.74167C13.0507 6.08072 13.4954 5.84038 14.4327 5.56398C15.0336 5.38372 15.7426 5.35969 16.3194 5.39574C16.6439 5.41978 16.8962 5.45583 17.1606 5.50389C17.8816 5.61205 18.6027 5.9966 19.2997 6.44124C19.7804 6.74167 20.213 7.28245 20.4654 7.67902C20.5855 7.84726 20.6456 8.00348 20.6937 8.07558C20.7658 8.19576 20.8139 8.32795 20.8619 8.47215C21.0422 8.94083 21.1383 9.56572 21.1624 10.3709V20.0207H17.6653V11.3443C17.6653 11.2121 17.7134 10.7554 17.5331 10.0224C17.3649 9.30134 17.0284 9.07302 17.0284 9.07302C16.6198 8.73653 16.3675 8.66443 16.0911 8.60434C15.8027 8.54425 15.3821 8.53224 14.9615 8.54425C14.5529 8.55627 14.0481 8.74855 13.8439 8.82065C13.6516 8.90477 13.267 9.10906 12.7984 9.62581C12.3417 10.1305 12.1014 11.1039 12.0773 11.7529V19.9847H8.56829V0H12.0773V6.97ZM67.2124 7.83524V5.6481H63.7755V19.9967H67.2004V12.0172C67.2605 10.7795 67.5969 10.4189 68.2699 9.81808C68.9429 9.21722 69.9403 9.03696 70.1446 9.02494C70.3489 9.00091 71.1781 8.90477 72.1034 9.12108V5.53995C71.4184 5.39574 70.0845 5.67214 69.7961 5.76828C69.5197 5.86441 68.8948 6.09274 68.294 6.56141C67.7051 7.00605 67.3446 7.58288 67.2124 7.83524ZM57.8269 17.2327C58.8724 16.716 59.4132 15.8027 59.5454 14.8894H63.1626V15.0215C63.0665 16.2353 62.2613 17.449 61.6725 18.122C61.0836 18.795 59.7016 19.9126 57.7428 20.213C55.784 20.5254 54.402 20.1048 54.1376 20.0568C53.8853 20.0087 52.3831 19.4799 51.3857 18.5065C50.4003 17.5331 49.8595 16.3314 49.8355 16.1872C49.8114 16.043 49.2587 15.0576 49.2707 12.6301C49.2827 10.2026 50.0638 8.7846 50.0638 8.7846C51.0853 6.90991 52.287 6.21291 53.2964 5.76828C54.3059 5.32364 55.9402 4.91505 57.9231 5.35969C59.8939 5.81634 61.2759 6.87386 62.2252 8.5082C63.1746 10.1546 63.2347 12.3657 63.1386 13.5915H52.6475C52.6355 13.5915 52.6355 15.2258 53.681 16.3915C54.8947 17.7374 56.7694 17.7374 57.8269 17.2327ZM52.8158 10.9117L59.6055 10.9237C59.5574 10.0584 59.3171 9.16915 58.0072 8.30391C56.7093 7.43867 55.1711 7.84726 54.5943 8.17172C54.0175 8.50821 52.996 9.2052 52.8158 10.9117ZM35.4508 19.9967H31.2568V18.6988C30.2474 19.6121 29.262 19.8765 28.9856 19.9606C28.7212 20.0448 27.7358 20.2971 26.4499 20.1769C25.1761 20.0568 24.2989 19.6963 23.3855 19.0473C22.4722 18.4104 22.0276 17.5091 21.7872 16.4636C21.5469 15.4181 21.9315 14.3366 22.1598 13.8919C22.3881 13.4473 23.2654 12.3537 24.2628 12.0293C25.2602 11.7048 25.8971 11.5125 27.4474 11.2361L30.5358 10.6112C30.8963 10.5511 31.0525 10.3829 31.1487 10.2868C31.2328 10.1906 31.3049 9.80606 31.2809 9.45757C31.2568 9.10907 31.2568 8.76057 30.6199 8.32795C29.983 7.90734 28.7813 7.94339 28.7813 7.94339C27.3873 7.97944 26.6542 8.21979 26.1856 8.67644C25.7169 9.1331 25.765 10.2387 25.765 10.2387H22.3881C22.4362 9.32538 22.5684 8.23181 23.0971 7.40262C23.6259 6.58544 24.5392 5.88845 25.9332 5.51591C25.9332 5.51591 27.4594 5.21548 28.553 5.23951C29.6585 5.26355 30.4757 5.33565 31.1607 5.52793C31.8457 5.70819 32.6628 5.9245 33.3238 6.41721L33.456 6.52536C34.8019 7.58288 34.6337 8.82065 34.6697 9.21722V17.9538C34.6697 18.7589 35.1384 19.54 35.4508 19.9967ZM31.2568 14.5769V12.8945C31.2568 12.8945 30.3676 13.1589 29.7066 13.243C29.0457 13.3391 27.7358 13.6516 27.0989 13.8439C26.462 14.0361 25.9933 14.3366 25.9933 14.3366C25.1881 14.7812 25.2602 15.7426 25.2602 15.7426C25.3924 17.0284 26.2577 17.2447 26.5701 17.413C26.8826 17.5692 28.553 17.8216 29.971 16.9443C31.377 16.067 31.2568 14.5769 31.2568 14.5769ZM45.4131 5.66012H48.6698V19.6001C48.6217 20.5375 48.5737 21.0302 47.9608 21.9074C47.9608 21.9074 47.0595 23.3255 44.608 23.7941C44.608 23.7941 39.8371 24.5993 37.3736 23.025C37.3736 23.025 35.8474 22.2319 35.6071 20.1409V19.9847H39.2723C39.3805 20.8259 39.9453 21.7272 42.7934 21.631C45.6415 21.5349 45.4011 19.6602 45.4011 19.6602V17.7855C45.4011 17.7855 43.7067 19.3117 41.3153 19.2276C38.9118 19.1435 37.3736 18.122 36.268 16.5117C35.1624 14.9134 34.9341 12.9786 35.2466 10.8155C35.559 8.65241 36.6285 7.49876 37.7341 6.63351C38.8397 5.76827 40.2938 5.47986 41.6517 5.47986C43.0097 5.47986 44.5359 6.12879 45.4011 6.99403V5.66012M45.4372 12.2936L45.4252 12.0773C45.4252 12.0773 45.4131 11.2121 45.1728 10.455C44.9445 9.69791 44.2955 9.16915 44.2955 9.16915C42.553 7.71507 40.6303 8.60434 40.4019 8.70048C40.1856 8.80864 38.6114 9.45757 38.4912 12.0052C38.371 14.5409 39.8492 15.6825 39.8492 15.6825C41.3153 16.8001 43.0938 16.5357 44.2234 15.6224C45.353 14.7331 45.4372 13.6035 45.4372 12.2936ZM5.25153 10.6833V8.02751C5.25153 7.3185 4.6747 6.72965 3.95367 6.72965H1.29786C0.588844 6.72965 0 7.3185 0 8.02751V10.6833C0 11.3923 0.588844 11.9812 1.29786 11.9812H3.95367C4.6747 11.9812 5.25153 11.3923 5.25153 10.6833ZM5.25153 18.6988V16.031C5.25153 15.322 4.6747 14.7331 3.95367 14.7331H1.29786C0.588844 14.7331 0 15.322 0 16.031V18.6988C0 19.4078 0.588844 19.9967 1.29786 19.9967H3.95367C4.6747 19.9967 5.25153 19.4078 5.25153 18.6988Z" fill="#00ACE9"/>
</svg>
