<svg width="91" height="24" viewBox="0 0 91 24" fill="none" xmlns="http://www.w3.org/2000/svg">
<path d="M7.625 9.42045C7.56439 8.88258 7.31439 8.46591 6.875 8.17045C6.43561 7.87121 5.88258 7.72159 5.21591 7.72159C4.73864 7.72159 4.32576 7.79735 3.97727 7.94886C3.62879 8.09659 3.35795 8.30114 3.16477 8.5625C2.97538 8.82008 2.88068 9.11364 2.88068 9.44318C2.88068 9.7197 2.94508 9.95833 3.07386 10.1591C3.20644 10.3598 3.37879 10.5284 3.59091 10.6648C3.80682 10.7973 4.03788 10.9091 4.28409 11C4.5303 11.0871 4.76705 11.1591 4.99432 11.2159L6.13068 11.5114C6.50189 11.6023 6.88258 11.7254 7.27273 11.8807C7.66288 12.036 8.02462 12.2405 8.35795 12.4943C8.69129 12.7481 8.96023 13.0625 9.16477 13.4375C9.37311 13.8125 9.47727 14.2614 9.47727 14.7841C9.47727 15.4432 9.30682 16.0284 8.96591 16.5398C8.62879 17.0511 8.13826 17.4545 7.49432 17.75C6.85417 18.0455 6.07955 18.1932 5.17045 18.1932C4.29924 18.1932 3.54545 18.0549 2.90909 17.7784C2.27273 17.5019 1.77462 17.1098 1.41477 16.6023C1.05492 16.0909 0.856061 15.4848 0.818182 14.7841H2.57955C2.61364 15.2045 2.75 15.5549 2.98864 15.8352C3.23106 16.1117 3.53977 16.3182 3.91477 16.4545C4.29356 16.5871 4.70833 16.6534 5.15909 16.6534C5.6553 16.6534 6.09659 16.5758 6.48295 16.4205C6.87311 16.2614 7.17992 16.0417 7.40341 15.7614C7.62689 15.4773 7.73864 15.1458 7.73864 14.767C7.73864 14.4223 7.64015 14.1402 7.44318 13.9205C7.25 13.7008 6.98674 13.5189 6.65341 13.375C6.32386 13.2311 5.95076 13.1042 5.53409 12.9943L4.15909 12.6193C3.22727 12.3655 2.48864 11.9924 1.94318 11.5C1.40152 11.0076 1.13068 10.3561 1.13068 9.54545C1.13068 8.875 1.3125 8.28977 1.67614 7.78977C2.03977 7.28977 2.5322 6.90151 3.15341 6.625C3.77462 6.3447 4.47538 6.20455 5.25568 6.20455C6.04356 6.20455 6.73864 6.3428 7.34091 6.61932C7.94697 6.89583 8.42424 7.27652 8.77273 7.76136C9.12121 8.24242 9.30303 8.79545 9.31818 9.42045H7.625ZM15.5128 9.27273V10.6364H10.7457V9.27273H15.5128ZM12.0241 7.18182H13.723V15.4375C13.723 15.767 13.7723 16.0152 13.8707 16.1818C13.9692 16.3447 14.0961 16.4564 14.2514 16.517C14.4105 16.5739 14.5829 16.6023 14.7685 16.6023C14.9048 16.6023 15.0241 16.5928 15.1264 16.5739C15.2287 16.5549 15.3082 16.5398 15.3651 16.5284L15.6719 17.9318C15.5734 17.9697 15.4332 18.0076 15.2514 18.0455C15.0696 18.0871 14.8423 18.1098 14.5696 18.1136C14.1226 18.1212 13.706 18.0417 13.3196 17.875C12.9332 17.7083 12.6207 17.4508 12.3821 17.1023C12.1435 16.7538 12.0241 16.3163 12.0241 15.7898V7.18182ZM21.0597 18.1761C20.1998 18.1761 19.4593 17.9924 18.8381 17.625C18.2206 17.2538 17.7434 16.733 17.4062 16.0625C17.0729 15.3883 16.9062 14.5985 16.9062 13.6932C16.9062 12.7992 17.0729 12.0114 17.4062 11.3295C17.7434 10.6477 18.2131 10.1155 18.8153 9.73295C19.4214 9.35038 20.1297 9.15909 20.9403 9.15909C21.4328 9.15909 21.91 9.24053 22.3722 9.40341C22.8343 9.56629 23.2491 9.82197 23.6165 10.1705C23.9839 10.5189 24.2737 10.9716 24.4858 11.5284C24.6979 12.0814 24.804 12.7538 24.804 13.5455V14.1477H17.8665V12.875H23.1392C23.1392 12.428 23.0483 12.0322 22.8665 11.6875C22.6847 11.339 22.429 11.0644 22.0994 10.8636C21.7737 10.6629 21.3911 10.5625 20.9517 10.5625C20.4744 10.5625 20.0578 10.6799 19.7017 10.9148C19.3494 11.1458 19.0767 11.4489 18.8835 11.8239C18.6941 12.1951 18.5994 12.5985 18.5994 13.0341V14.0284C18.5994 14.6117 18.7017 15.108 18.9062 15.517C19.1146 15.9261 19.4044 16.2386 19.7756 16.4545C20.1468 16.6667 20.5805 16.7727 21.0767 16.7727C21.3987 16.7727 21.6922 16.7273 21.9574 16.6364C22.2225 16.5417 22.4517 16.4015 22.6449 16.2159C22.8381 16.0303 22.9858 15.8011 23.0881 15.5284L24.696 15.8182C24.5672 16.2917 24.3362 16.7064 24.0028 17.0625C23.6733 17.4148 23.2585 17.6894 22.7585 17.8864C22.2623 18.0795 21.696 18.1761 21.0597 18.1761ZM30.3651 18.1761C29.5204 18.1761 28.7931 17.9848 28.1832 17.6023C27.5772 17.2159 27.1113 16.6837 26.7855 16.0057C26.4598 15.3277 26.2969 14.5511 26.2969 13.6761C26.2969 12.7898 26.4635 12.0076 26.7969 11.3295C27.1302 10.6477 27.5999 10.1155 28.206 9.73295C28.812 9.35038 29.526 9.15909 30.348 9.15909C31.0109 9.15909 31.6018 9.2822 32.1207 9.52841C32.6397 9.77083 33.0582 10.1117 33.3764 10.5511C33.6984 10.9905 33.8897 11.5038 33.9503 12.0909H32.2969C32.206 11.6818 31.9976 11.3295 31.6719 11.0341C31.3499 10.7386 30.9181 10.5909 30.3764 10.5909C29.9029 10.5909 29.4882 10.7159 29.1321 10.9659C28.7798 11.2121 28.5052 11.5644 28.3082 12.0227C28.1113 12.4773 28.0128 13.0152 28.0128 13.6364C28.0128 14.2727 28.1094 14.822 28.3026 15.2841C28.4957 15.7462 28.7685 16.1042 29.1207 16.358C29.4768 16.6117 29.8954 16.7386 30.3764 16.7386C30.6984 16.7386 30.9901 16.6799 31.2514 16.5625C31.5166 16.4413 31.7382 16.2689 31.9162 16.0455C32.098 15.822 32.2249 15.553 32.2969 15.2386H33.9503C33.8897 15.803 33.706 16.3068 33.3991 16.75C33.0923 17.1932 32.6813 17.5417 32.1662 17.7955C31.6548 18.0492 31.0545 18.1761 30.3651 18.1761ZM37.3295 15.0398L37.3182 12.9659H37.6136L41.0909 9.27273H43.125L39.1591 13.4773H38.892L37.3295 15.0398ZM35.767 18V6.36364H37.4659V18H35.767ZM41.2784 18L38.1534 13.8523L39.3239 12.6648L43.3636 18H41.2784ZM47.581 18.1705C46.8764 18.1705 46.2476 17.9905 45.6946 17.6307C45.1454 17.267 44.7135 16.75 44.3991 16.0795C44.0885 15.4053 43.9332 14.5966 43.9332 13.6534C43.9332 12.7102 44.0904 11.9034 44.4048 11.233C44.723 10.5625 45.1586 10.0492 45.7116 9.69318C46.2647 9.33712 46.8916 9.15909 47.5923 9.15909C48.134 9.15909 48.5696 9.25 48.8991 9.43182C49.2325 9.60985 49.4901 9.81818 49.6719 10.0568C49.8575 10.2955 50.0014 10.5057 50.1037 10.6875H50.206V6.36364H51.9048V18H50.2457V16.642H50.1037C50.0014 16.8277 49.8537 17.0398 49.6605 17.2784C49.4711 17.517 49.2098 17.7254 48.8764 17.9034C48.5431 18.0814 48.1113 18.1705 47.581 18.1705ZM47.956 16.7216C48.4446 16.7216 48.8575 16.5928 49.1946 16.3352C49.5355 16.0739 49.7931 15.7121 49.9673 15.25C50.1454 14.7879 50.2344 14.25 50.2344 13.6364C50.2344 13.0303 50.1473 12.5 49.973 12.0455C49.7988 11.5909 49.5431 11.2367 49.206 10.983C48.8688 10.7292 48.4522 10.6023 47.956 10.6023C47.4446 10.6023 47.0185 10.7348 46.6776 11C46.3366 11.2652 46.0791 11.6269 45.9048 12.0852C45.7344 12.5436 45.6491 13.0606 45.6491 13.6364C45.6491 14.2197 45.7363 14.7443 45.9105 15.2102C46.0848 15.6761 46.3423 16.0455 46.6832 16.3182C47.0279 16.5871 47.4522 16.7216 47.956 16.7216ZM58.0057 18.1761C57.1875 18.1761 56.4735 17.9886 55.8636 17.6136C55.2538 17.2386 54.7803 16.714 54.4432 16.0398C54.1061 15.3655 53.9375 14.5777 53.9375 13.6761C53.9375 12.7708 54.1061 11.9792 54.4432 11.3011C54.7803 10.6231 55.2538 10.0966 55.8636 9.72159C56.4735 9.34659 57.1875 9.15909 58.0057 9.15909C58.8239 9.15909 59.5379 9.34659 60.1477 9.72159C60.7576 10.0966 61.2311 10.6231 61.5682 11.3011C61.9053 11.9792 62.0739 12.7708 62.0739 13.6761C62.0739 14.5777 61.9053 15.3655 61.5682 16.0398C61.2311 16.714 60.7576 17.2386 60.1477 17.6136C59.5379 17.9886 58.8239 18.1761 58.0057 18.1761ZM58.0114 16.75C58.5417 16.75 58.9811 16.6098 59.3295 16.3295C59.678 16.0492 59.9356 15.6761 60.1023 15.2102C60.2727 14.7443 60.358 14.2311 60.358 13.6705C60.358 13.1136 60.2727 12.6023 60.1023 12.1364C59.9356 11.6667 59.678 11.2898 59.3295 11.0057C58.9811 10.7216 58.5417 10.5795 58.0114 10.5795C57.4773 10.5795 57.0341 10.7216 56.6818 11.0057C56.3333 11.2898 56.0739 11.6667 55.9034 12.1364C55.7367 12.6023 55.6534 13.1136 55.6534 13.6705C55.6534 14.2311 55.7367 14.7443 55.9034 15.2102C56.0739 15.6761 56.3333 16.0492 56.6818 16.3295C57.0341 16.6098 57.4773 16.75 58.0114 16.75ZM70.5099 11.4034L68.9702 11.6761C68.9058 11.4792 68.8035 11.2917 68.6634 11.1136C68.527 10.9356 68.3414 10.7898 68.1065 10.6761C67.8717 10.5625 67.5781 10.5057 67.2259 10.5057C66.7448 10.5057 66.3433 10.6136 66.0213 10.8295C65.6993 11.0417 65.5384 11.3163 65.5384 11.6534C65.5384 11.9451 65.6463 12.1799 65.8622 12.358C66.0781 12.536 66.4266 12.6818 66.9077 12.7955L68.294 13.1136C69.0971 13.2992 69.6955 13.5852 70.0895 13.9716C70.4834 14.358 70.6804 14.8598 70.6804 15.4773C70.6804 16 70.5289 16.4659 70.2259 16.875C69.9266 17.2803 69.508 17.5985 68.9702 17.8295C68.4361 18.0606 67.8168 18.1761 67.1122 18.1761C66.1349 18.1761 65.3376 17.9678 64.7202 17.5511C64.1027 17.1307 63.724 16.5341 63.5838 15.7614L65.2259 15.5114C65.3281 15.9394 65.5384 16.2633 65.8565 16.483C66.1747 16.6989 66.5895 16.8068 67.1009 16.8068C67.6577 16.8068 68.1027 16.6913 68.4361 16.4602C68.7694 16.2254 68.9361 15.9394 68.9361 15.6023C68.9361 15.3295 68.8338 15.1004 68.6293 14.9148C68.4285 14.7292 68.1198 14.589 67.7031 14.4943L66.2259 14.1705C65.4115 13.9848 64.8092 13.6894 64.419 13.2841C64.0327 12.8788 63.8395 12.3655 63.8395 11.7443C63.8395 11.2292 63.9834 10.7784 64.2713 10.392C64.5592 10.0057 64.9569 9.70455 65.4645 9.48864C65.9721 9.26894 66.5535 9.15909 67.2088 9.15909C68.152 9.15909 68.8944 9.36364 69.4361 9.77273C69.9777 10.178 70.3357 10.7216 70.5099 11.4034ZM76.3097 18.1761C75.4498 18.1761 74.7093 17.9924 74.0881 17.625C73.4706 17.2538 72.9934 16.733 72.6562 16.0625C72.3229 15.3883 72.1562 14.5985 72.1562 13.6932C72.1562 12.7992 72.3229 12.0114 72.6562 11.3295C72.9934 10.6477 73.4631 10.1155 74.0653 9.73295C74.6714 9.35038 75.3797 9.15909 76.1903 9.15909C76.6828 9.15909 77.16 9.24053 77.6222 9.40341C78.0843 9.56629 78.4991 9.82197 78.8665 10.1705C79.2339 10.5189 79.5237 10.9716 79.7358 11.5284C79.9479 12.0814 80.054 12.7538 80.054 13.5455V14.1477H73.1165V12.875H78.3892C78.3892 12.428 78.2983 12.0322 78.1165 11.6875C77.9347 11.339 77.679 11.0644 77.3494 10.8636C77.0237 10.6629 76.6411 10.5625 76.2017 10.5625C75.7244 10.5625 75.3078 10.6799 74.9517 10.9148C74.5994 11.1458 74.3267 11.4489 74.1335 11.8239C73.9441 12.1951 73.8494 12.5985 73.8494 13.0341V14.0284C73.8494 14.6117 73.9517 15.108 74.1562 15.517C74.3646 15.9261 74.6544 16.2386 75.0256 16.4545C75.3968 16.6667 75.8305 16.7727 76.3267 16.7727C76.6487 16.7727 76.9422 16.7273 77.2074 16.6364C77.4725 16.5417 77.7017 16.4015 77.8949 16.2159C78.0881 16.0303 78.2358 15.8011 78.3381 15.5284L79.946 15.8182C79.8172 16.2917 79.5862 16.7064 79.2528 17.0625C78.9233 17.4148 78.5085 17.6894 78.0085 17.8864C77.5123 18.0795 76.946 18.1761 76.3097 18.1761ZM83.6378 12.8182V18H81.9389V9.27273H83.5696V10.6932H83.6776C83.8783 10.2311 84.1927 9.85985 84.6207 9.57955C85.0526 9.29924 85.5961 9.15909 86.2514 9.15909C86.8461 9.15909 87.367 9.28409 87.8139 9.53409C88.2609 9.7803 88.6075 10.1477 88.8537 10.6364C89.0999 11.125 89.223 11.7292 89.223 12.4489V18H87.5241V12.6534C87.5241 12.0208 87.3594 11.5265 87.0298 11.1705C86.7003 10.8106 86.2476 10.6307 85.6719 10.6307C85.2779 10.6307 84.9276 10.7159 84.6207 10.8864C84.3177 11.0568 84.0772 11.3068 83.8991 11.6364C83.7249 11.9621 83.6378 12.3561 83.6378 12.8182Z" fill="#626262"/>
</svg>
